<svg xmlns="http://www.w3.org/2000/svg" xmlns:xlink="http://www.w3.org/1999/xlink" fill="none" version="1.1" width="32" height="16" viewBox="0 0 32 16"><g><rect x="0" y="0" width="32" height="16" rx="4" fill="#FF1F1F" fill-opacity="1"/><g><g><path d="M4.7,4.859999999999999L4.7,12L5.79,12L5.79,6.63L5.83,6.63L9.52,12L10.58,12L10.58,4.859999999999999L9.49,4.859999999999999L9.49,10.17L9.45,10.17L5.8,4.859999999999999L4.7,4.859999999999999ZM11.99,4.859999999999999L11.99,12L17.29,12L17.29,11.07L13.08,11.07L13.08,8.8L16.880000000000003,8.8L16.880000000000003,7.87L13.08,7.87L13.08,5.79L17.119999999999997,5.79L17.119999999999997,4.859999999999999L11.99,4.859999999999999ZM17.75,4.859999999999999L19.8,12L20.97,12L22.42,6.49L22.46,6.49L23.91,12L25.07,12L27.13,4.859999999999999L25.9,4.859999999999999L24.51,10.42L24.47,10.42L23.01,4.859999999999999L21.87,4.859999999999999L20.41,10.42L20.37,10.42L18.98,4.859999999999999L17.75,4.859999999999999Z" fill="#FFFFFF" fill-opacity="1"/></g></g></g></svg>