<svg xmlns="http://www.w3.org/2000/svg" xmlns:xlink="http://www.w3.org/1999/xlink" fill="none" version="1.1" width="24" height="24" viewBox="0 0 24 24"><defs><clipPath id="master_svg0_17_06504"><rect x="0" y="0" width="24" height="24" rx="0"/></clipPath></defs><g clip-path="url(#master_svg0_17_06504)"><g transform="matrix(0.7071067690849304,0.7071067690849304,-0.7071067690849304,0.7071067690849304,10.31607259408338,-4.405202109657694)"><path d="M10.4755859375,10.25L10.9892669375,12L10.4755859375,13.75L12.2255859375,13.23632L13.9755859375,13.75L13.4619059375,12L13.9755859375,10.25L12.2255859375,10.763682L10.4755859375,10.25Z" fill="#FFFFFF" fill-opacity="1" style="mix-blend-mode:passthrough"/></g><g transform="matrix(0.7071067690849304,0.7071067690849304,-0.7071067690849304,0.7071067690849304,9.73775345965987,-0.10862583800917491)"><path d="M5,11.7001953125L5.217856,12.4073723125L5,13.1145453125L5.742187,12.9069653125L6.48437,13.1145453125L6.26652,12.4073723125L6.48437,11.7001953125L5.742187,11.9077743125L5,11.7001953125Z" fill="#FFFFFF" fill-opacity="1" style="mix-blend-mode:passthrough"/></g><g><path d="M15.25,13L12.25,4C13.74415,8.426680000000001,16.8163,11.57297,20.25,13C17.10156,14.2359,13.93999,17.011400000000002,12.386413,21.3521L15.25,13ZM12.386413,21.3521C12.3394582,21.4833,12.2939723,21.6159,12.25,21.75L12.386413,21.3521ZM16.25,13L16,12.25L18,13L16,13.75L16.25,13Z" fill-rule="evenodd" fill="#FFFFFF" fill-opacity="1"/></g></g></svg>