<svg xmlns="http://www.w3.org/2000/svg" xmlns:xlink="http://www.w3.org/1999/xlink" fill="none" version="1.1" width="87" height="12" viewBox="0 0 87 12"><defs><linearGradient x1="0.06211474910378456" y1="0.0386149100959301" x2="0.9643927249254537" y2="0.05516942977068595" id="master_svg0_17_05046"><stop offset="0%" stop-color="#956BFF" stop-opacity="1"/><stop offset="45.205479860305786%" stop-color="#6B9CFF" stop-opacity="1"/><stop offset="100%" stop-color="#D760FF" stop-opacity="1"/></linearGradient></defs><g><path d="M85.9944,2.98066L85.9929,2.98097Q41.601,12,37.1147,12Q36.4613,12,36.0378,11.7768Q35.1228,11.2946,35.1118,10.113Q35.102,9.06832,36.1435,7.91084Q36.9986,6.96051,39.8978,4.58401Q40.9199,3.74626,41.6454,3.12308Q33.5661,3.74369,1.30843,7.49352L1.30843,7.49352C1.27109,7.49786,1.23418,7.5,1.19725,7.5C0.536026,7.5,0,6.82843,0,6C0,5.22526,0.470915,4.57799,1.08664,4.50642Q39.8528,-2.38419e-7,43.8991,0Q44.5174,0,44.9229,0.232596Q45.8369,0.757004,45.769,1.97401Q45.7159,2.92405,44.7457,3.97919Q43.9392,4.85631,41.2088,7.09444Q39.9829,8.09934,39.1594,8.81627Q47.73,7.71555,85.6057,0.0204372L85.6109,0.0193808C85.6743,0.00648117,85.7385,0,85.8027,0C86.464,0,87,0.671573,87,1.5C87,2.23576,86.5741,2.8629,85.9944,2.98066Z" fill-rule="evenodd" fill="url(#master_svg0_17_05046)" fill-opacity="1"/></g></svg>