<svg xmlns="http://www.w3.org/2000/svg" xmlns:xlink="http://www.w3.org/1999/xlink" fill="none" version="1.1" width="24" height="24" viewBox="0 0 24 24"><defs><clipPath id="master_svg0_17_06512"><rect x="24" y="0" width="24" height="24" rx="0"/></clipPath></defs><g transform="matrix(-1,0,0,1,48,0)" clip-path="url(#master_svg0_17_06512)"><g transform="matrix(0.7071067690849304,0.7071067690849304,-0.7071067690849304,0.7071067690849304,17.34551013604505,-21.375764567696024)"><path d="M34.4755859375,10.25L34.9892669375,12L34.4755859375,13.75L36.2255859375,13.23632L37.9755859375,13.75L37.4619059375,12L37.9755859375,10.25L36.2255859375,10.763682L34.4755859375,10.25Z" fill="#FFFFFF" fill-opacity="1" style="mix-blend-mode:passthrough"/></g><g transform="matrix(0.7071067690849304,0.7071067690849304,-0.7071067690849304,0.7071067690849304,16.76719100162154,-17.079188296047505)"><path d="M29,11.7001953125L29.217856,12.4073723125L29,13.1145453125L29.742187,12.9069653125L30.48437,13.1145453125L30.26652,12.4073723125L30.48437,11.7001953125L29.742187,11.9077743125L29,11.7001953125Z" fill="#FFFFFF" fill-opacity="1" style="mix-blend-mode:passthrough"/></g><g><path d="M39.25,13L36.25,4C37.74415,8.426680000000001,40.8163,11.57297,44.25,13C41.10156,14.2359,37.93999,17.011400000000002,36.386413,21.3521L39.25,13ZM36.386413,21.3521C36.3394582,21.4833,36.2939723,21.6159,36.25,21.75L36.386413,21.3521ZM40.25,13L40,12.25L42,13L40,13.75L40.25,13Z" fill-rule="evenodd" fill="#FFFFFF" fill-opacity="1"/></g></g></svg>