<svg xmlns="http://www.w3.org/2000/svg" xmlns:xlink="http://www.w3.org/1999/xlink" fill="none" version="1.1" width="16" height="16" viewBox="0 0 16 16"><g><g style="opacity:0;"><rect x="0" y="0" width="16" height="16" rx="0" fill="#C69EFF" fill-opacity="1"/></g><g><path d="M11.404805625,8.821709972343445C11.210195625,9.016269972343444,11.210175625,9.331749972343445,11.404755625,9.526329972343444C11.599345625,9.720909972343446,11.914815625,9.720899972343444,12.109415625,9.526289972343445L13.165715625,8.469669972343445C14.722415625,6.913329972343445,14.722415625,4.389999972343444,13.165715625,2.833999972343445C11.609755625,1.2773329723434448,9.086425625,1.2773329723434448,7.530095625,2.833999972343445L6.473485625,3.890349972343445C6.278875625,4.084919972343444,6.278855625,4.400429972343445,6.473445625,4.595019972343445C6.668025625,4.789599972343445,6.983495625,4.789599972343445,7.178075625,4.595019972343445L8.234755625,3.538329972343445C9.402015625,2.371171972343445,11.294435625,2.371245972343445,12.461615625,3.5384999723434447C13.628715625,4.705749972343445,13.628715625,6.598169972343445,12.461415625,7.765329972343445L11.404805625,8.821709972343445ZM8.469185625,13.165799972343445C6.912845625,14.722399972343444,4.389515625,14.722399972343444,2.833515625,13.165799972343445C1.276848625,11.609759972343445,1.276848625,9.086419972343446,2.833515625,7.530089972343445L3.889895625,6.473459972343445C4.084445625,6.278859972343445,4.3999356249999995,6.2788399723434445,4.594515625,6.473419972343445C4.789095625,6.667999972343445,4.789075625000001,6.9834899723434445,4.594475624999999,7.1780499723434446L3.537845625,8.234419972343446C2.370595625,9.401589972343444,2.370520625,11.293999972343444,3.537685625,12.461299972343445C4.704845625,13.628499972343445,6.597265625,13.628599972343444,7.764515625,12.461399972343445L8.821205625000001,11.404739972343444C9.015775625,11.210159972343444,9.331255625,11.210159972343444,9.525825625,11.404739972343444C9.720425625,11.599329972343444,9.720405625,11.914799972343445,9.525785625000001,12.109399972343445L8.469185625,13.165799972343445ZM9.408615625,6.591099972343445C9.603205625000001,6.7856899723434445,9.603205625000001,7.101179972343445,9.408615625,7.295769972343445L7.295285625,9.409099972343444C7.100695625,9.603689972343446,6.785205625,9.603689972343446,6.590615625,9.409099972343444C6.396025625,9.214509972343444,6.396025625,8.899019972343446,6.590615625,8.704429972343444L8.703945625,6.591099972343445C8.898535625000001,6.396509972343445,9.214025625,6.396509972343445,9.408615625,6.591099972343445Z" fill-rule="evenodd" fill="#C69EFF" fill-opacity="1"/></g></g></svg>