<svg xmlns="http://www.w3.org/2000/svg" xmlns:xlink="http://www.w3.org/1999/xlink" fill="none" version="1.1" width="116" height="29" viewBox="0 0 116 29"><defs><clipPath id="master_svg0_17_7528"><rect x="0" y="0" width="28" height="28" rx="0"/></clipPath><linearGradient x1="0.25060415267944336" y1="0.03759760409593582" x2="0.8920916105517388" y2="0.9684715982840055" id="master_svg1_17_6658"><stop offset="0%" stop-color="#956BFF" stop-opacity="1"/><stop offset="45.205479860305786%" stop-color="#6B9CFF" stop-opacity="1"/><stop offset="100%" stop-color="#D760FF" stop-opacity="1"/></linearGradient></defs><g><g clip-path="url(#master_svg0_17_7528)"><g><path d="M11.8413071875,16.1260328125Q12.7305671875,16.100832812500002,13.7787671875,15.6734328125Q15.6185671875,14.9232328125,18.6195671875,11.4420328125Q20.8907671875,8.807462812499999,24.1334671875,9.7032828125Q25.0848671875,9.9660828125,25.3492671875,10.9169628125Q25.6137671875,11.8678328125,24.9346671875,12.5840828125L20.7433671875,17.005032812499998L21.5184671875,22.9142328125Q21.6537671875,23.9460328125,20.8119671875,24.5576328125Q19.9700671875,25.1693328125,19.0306671875,24.7217328125L13.6501671875,22.1585328125L8.0293171875,24.8363328125Q7.1862471875,25.2379328125,6.3920471875,24.7626328125Q5.560917187499999,24.2653328125,5.572037187499999,23.2954328125Q5.6233971875,18.8173328125,8.9250671875,15.8632328125Q9.471157187500001,15.3746328125,10.6386371875,14.3935328125Q13.6145671875,11.8927028125,14.5148671875,10.6577128125Q15.7486671875,8.9652328125,15.0166671875,7.7017228125Q14.1378671875,6.1847828125,13.5797671875,5.128552812500001L11.0318171875,9.816002812499999Q10.6336671875,10.5484728125,9.8140071875,10.7007928125L4.4254971874999995,11.7021328125L7.4170571875,14.8523328125C7.6023571875,15.0474328125,7.7056671875,15.3062328125,7.7056671875,15.5753328125C7.7056671875,16.1552328125,7.2355671875,16.625332812499998,6.6556671875,16.625332812499998C6.3677871875,16.625332812499998,6.0925271875,16.5071328125,5.8942871875,16.2984328125L2.4588971875,12.6808528125Q1.7420041875,11.9259328125,2.0633020875,10.9356828125Q2.3846001875000002,9.9454328125,3.4081471875,9.755232812500001L9.2663971875,8.6665928125L11.9574771875,3.7158568125Q12.4884671875,2.7389258125,13.6477671875,2.7885297325Q14.7603671875,2.8361366125,15.2503671875,3.7902928124999997Q15.8171671875,4.8943528125,16.8337671875,6.6490228125Q18.2516671875,9.0965528125,16.2117671875,11.8947828125Q15.1610671875,13.3361328125,11.9896671875,16.0012328125Q11.9140471875,16.0647328125,11.8413071875,16.1260328125ZM7.7019671875,22.6661328125Q7.9291771875,19.8850328125,9.8373771875,17.8986328125Q11.9417371875,18.6903328125,14.5716671875,17.618032812499997Q16.879267187499998,16.677032812500002,20.2101671875,12.8132328125Q21.3899671875,11.4446028125,22.9644671875,11.6099828125L19.1046671875,15.6812328125Q18.5310671875,16.2862328125,18.6394671875,17.112832812500002L19.3525671875,22.5489328125L14.4028671875,20.1909328125Q13.6501671875,19.8324328125,12.8975671875,20.1909328125L7.7019671875,22.6661328125Z" fill-rule="evenodd" fill="url(#master_svg1_17_6658)" fill-opacity="1"/></g><g><path d="M20.5625,3.5000000000000004L21.15338,5.09662L22.75,5.6875L21.15338,6.27838L20.5625,7.875L19.97162,6.27838L18.375,5.6875L19.97162,5.09662L20.5625,3.5000000000000004Z" fill="#FBFF24" fill-opacity="1"/></g></g><g><path d="M39.14,10.22Q38.32,8.059999999999999,37.38,6.22L39.56,6.22Q40.62,8.24,41.36,10.22L39.14,10.22ZM52.739999999999995,9.82Q52.06,13.4,49.74,15.92Q51.82,17.6,54.739999999999995,18.72L53.18,20.38Q50.34,19.2,48.2,17.36Q45.64,19.38,41.78,20.52L42.4,18.16Q44.94,17.24,46.72,15.88Q44.480000000000004,13.3,43.7,9.82L42.019999999999996,9.82L42.019999999999996,8.02L47.2,8.02Q46.9,6.82,46.54,6L48.82,6Q49.12,6.74,49.46,8.02L54.54,8.02L54.54,9.82L52.739999999999995,9.82ZM50.56,9.82L45.88,9.82Q46.44,12.46,48.24,14.5Q50.1,12.46,50.56,9.82ZM40.84,20.08Q42.76,21.68,44.480000000000004,21.68L55.16,21.68L54.620000000000005,23.56L44.78,23.56Q43.3,23.56,42.26,23.16Q41.32,22.8,40.32,21.96Q39.94,23.04,39.34,24L37.06,24Q38.88,21.16,38.88,18.86L38.88,13.1L37,13.1L37,11.36L39.92,11.36Q40.94,11.38,40.96,12.38L40.96,18.86Q40.96,19.46,40.84,20.08ZM60.239999999999995,6.22Q61.32,8.4,61.94,10L59.78,10Q59.120000000000005,8.26,58.1,6.22L60.239999999999995,6.22ZM70.18,20.12Q72.28,21.46,75.25999999999999,22.24L73.86,24.04Q70.7,23.12,68.42,21.5Q65.52,23.38,61.9,24.1L62.44,22.02Q61.4,22.38,60.16,22.5Q59.6,22.58,59.28,22.26Q58.96,21.96,58.96,21.4L58.96,13L57,13L57,11.22L59.9,11.22Q60.96,11.26,60.980000000000004,12.22L60.980000000000004,20.3Q60.980000000000004,20.54,61.2,20.5Q62.260000000000005,20.28,63.32,19.84L63.08,21.68Q65.06,21.12,66.74,20.1Q64.88,18.32,63.760000000000005,15.82L66.16,15.82Q67.02,17.52,68.5,18.84Q70.6,17.02,71.3,14.98L63.16,14.98L63.16,13.32L72.8,13.32Q73.36,13.32,73.6,13.68Q73.8,14,73.68,14.5Q72.94,17.64,70.18,20.12ZM66.4,8.120000000000001L66.4,8.46Q66.48,10.66,64.82,12.58L62.46,12.58Q63.5,11.3,63.92,10.38Q64.32,9.48,64.32,8.4L64.32,6.46L71.6,6.46Q72.52000000000001,6.46,72.52000000000001,7.44L72.52000000000001,10.48Q72.52000000000001,10.7,72.74000000000001,10.7L73.46000000000001,10.7Q74.28,10.7,75.02000000000001,10.42L74.78,12.18Q74.08,12.4,73,12.4L71.62,12.4Q70.5,12.38,70.46000000000001,11.2L70.46000000000001,8.120000000000001L66.4,8.120000000000001ZM80.53999999999999,6.22Q81.52000000000001,8.1,82.28,10L79.97999999999999,10Q79.24000000000001,8.16,78.25999999999999,6.22L80.53999999999999,6.22ZM83.46000000000001,22.42Q82.16,22.92,80.3,23.08Q79.7,23.12,79.36,22.86Q79,22.58,79,22.02L79,12.98L77,12.98L77,11.22L79.97999999999999,11.22Q80.5,11.22,80.8,11.48Q81.1,11.74,81.1,12.18L81.1,20.98Q81.1,21.16,81.3,21.14Q82.2,21,83.7,20.48L83.46000000000001,22.42ZM90,13.4L90,24L87.84,24L87.84,13.4L82.86,13.4L82.86,11.54L87.84,11.54L87.84,6L90,6L90,11.54L95,11.54L95,13.4L90,13.4ZM113.56,7.62Q114,10.64,115.2,14.12L113.14,14.12Q112.2,11.08,111.66,7.62L113.56,7.62ZM107.38,7.62Q107.04,12.14,106.04,15.9L104.02,15.9Q105.2,11.7,105.48,7.62L107.38,7.62ZM110.54,16.619999999999997L108.52,16.619999999999997L108.52,6L110.54,6L110.54,16.619999999999997ZM103.88,21.74Q109.8,19.7,112.24,14.8L114.6,14.8Q112.8,18.6,110.26,20.7Q107.66,22.84,103.24,24.08L103.88,21.74ZM102.5,17.96Q103.56,18.82,104.42,19.6L103.44,21.42Q102.46,20.52,101.58,19.74Q100,22.18,96.84,24.02L97.34,21.44Q99.08,20.1,100.08,18.46Q99.24000000000001,17.74,98,16.759999999999998Q97.3,16.22,97.47999999999999,15.36Q98,12.74,98.3,9.88L97,9.88L97,8.16L98.47999999999999,8.16Q98.53999999999999,7.52,98.62,6L100.64,6Q100.56,7.08,100.46,8.16L102.92,8.16Q103.94,8.2,103.92,9.14Q103.9,14.58,102.5,17.96ZM100.92,16.68Q101.84,14.14,101.9,9.88L100.28,9.88Q99.88,13.22,99.4,15.48Q99.92,15.88,100.92,16.68Z" fill="#FFFFFF" fill-opacity="1"/></g></g></svg>