<svg xmlns="http://www.w3.org/2000/svg" xmlns:xlink="http://www.w3.org/1999/xlink" fill="none" version="1.1" width="16" height="16" viewBox="0 0 16 16"><g><g style="opacity:0;"><rect x="0" y="0" width="16" height="16" rx="0" fill="#FFFFFF" fill-opacity="1"/></g><g><path d="M14.1663078125,3.1665L6.9225278125,3.1665Q6.8828678125,3.0404400000000003,6.8238478125,2.922209Q6.7648178125,2.803974,6.6878878125,2.696518Q6.6109678125,2.589063,6.5180678125,2.495073Q6.4251778125,2.401083,6.3186278125,2.322907Q6.2120778125,2.24473,6.0945478125,2.184322Q5.9770078125,2.123914,5.8514178125,2.0827825Q5.7258378125,2.0416515,5.5953378125,2.0208257Q5.4648378125,2,5.3326778125,2Q5.2005278125,2,5.070027812499999,2.0208257Q4.9395278125,2.0416515,4.8139478125,2.0827825Q4.6883578125,2.123914,4.5708178125,2.184322Q4.4532878125,2.24473,4.3467378125,2.322907Q4.2401878125,2.401083,4.1472978125,2.495073Q4.0543978124999995,2.589063,3.9774778125,2.696519Q3.9005478125,2.803974,3.8415178125,2.922209Q3.7824978125,3.0404400000000003,3.7428378125,3.1665L1.8330078125,3.1665C1.5568658125,3.1665,1.3330078125,3.3903600000000003,1.3330078125,3.6665C1.3330078125,3.94265,1.5568658125,4.1665,1.8330078125,4.1665L3.7427278125,4.1665Q3.7823678125,4.292590000000001,3.8413878125,4.41086Q3.9004078125,4.52912,3.9773278125,4.63661Q4.0542478125,4.74409,4.1471478125,4.83811Q4.2400478125,4.93213,4.346597812500001,5.01033Q4.453157812500001,5.08853,4.5707078125,5.14895Q4.6882578125,5.2093799999999995,4.8138678125,5.25052Q4.9394678125,5.29167,5.0699878125,5.3125Q5.2005078125,5.33333,5.3326778125,5.33333Q5.4648578125,5.33333,5.5953778125,5.3125Q5.7258978125,5.29167,5.8514978125,5.25052Q5.9771078125,5.2093799999999995,6.0946578125,5.14895Q6.2122078125,5.08853,6.3187678125,5.01033Q6.4253178125,4.93213,6.5182178125,4.83811Q6.6111178125,4.74409,6.6880378125,4.63661Q6.7649578125,4.52912,6.8239778125,4.41086Q6.8829978125,4.292590000000001,6.9226278125,4.1665L14.1663078125,4.1665C14.4425078125,4.1665,14.6663078125,3.94265,14.6663078125,3.6665C14.6663078125,3.3903600000000003,14.4425078125,3.1665,14.1663078125,3.1665ZM5.3333378125,4.50016Q5.4154078125,4.50016,5.4959078125,4.48415Q5.5764078125,4.46814,5.6522378125,4.43673Q5.7280678125,4.40532,5.7963078125,4.359719999999999Q5.8645478125,4.31412,5.9225878125,4.25608Q5.9806278125,4.19805,6.0262278125,4.1297999999999995Q6.0718278125,4.06156,6.1032278125,3.98573Q6.1346378125,3.9099,6.1506578125,3.8293999999999997Q6.1666678125,3.74891,6.1666678125,3.66683Q6.1666678125,3.58475,6.1506578125,3.50425Q6.1346378125,3.42375,6.1032278125,3.34793Q6.0718278125,3.2721,6.0262278125,3.20385Q5.9806278125,3.13561,5.9225878125,3.0775699999999997Q5.8645478125,3.01954,5.7963078125,2.973938Q5.7280678125,2.9283390000000002,5.6522378125,2.8969300000000002Q5.5764078125,2.865521,5.4959078125,2.849508Q5.4154078125,2.8334960000000002,5.3333378125,2.8334960000000002Q5.2512578125000005,2.8334960000000002,5.1707578125,2.849508Q5.0902578125,2.865521,5.0144278125,2.8969300000000002Q4.938597812499999,2.9283390000000002,4.8703578125,2.973938Q4.802117812500001,3.01954,4.7440778125000005,3.0775699999999997Q4.6860378125,3.13561,4.6404378125,3.20385Q4.5948378125,3.2721,4.5634378125,3.34793Q4.5320278125,3.42375,4.5160078125,3.50425Q4.4999978125,3.58475,4.4999978125,3.66683Q4.4999978125,3.74891,4.5160078125,3.8293999999999997Q4.5320278125,3.9099,4.5634378125,3.98573Q4.5948378125,4.06156,4.6404378125,4.1297999999999995Q4.6860378125,4.19805,4.7440778125000005,4.25608Q4.802117812500001,4.31412,4.8703578125,4.359719999999999Q4.938597812499999,4.40532,5.0144278125,4.43673Q5.0902578125,4.46814,5.1707578125,4.48415Q5.2512578125000005,4.50016,5.3333378125,4.50016ZM1.8326838125,7.5L9.076497812500001,7.5Q9.1161478125,7.37394,9.1751778125,7.25571Q9.2342078125,7.13747,9.3111378125,7.03001Q9.3880578125,6.92256,9.4809578125,6.82857Q9.5738478125,6.73458,9.6803978125,6.6564Q9.7869478125,6.57823,9.9044778125,6.51782Q10.0220178125,6.45741,10.1476078125,6.41628Q10.2731878125,6.37515,10.4036878125,6.35432Q10.5341878125,6.3335,10.6663378125,6.3335Q10.7984978125,6.3335,10.9289978125,6.35432Q11.0594978125,6.37515,11.1850778125,6.41628Q11.3106678125,6.45741,11.4282078125,6.51782Q11.5457078125,6.57823,11.6523078125,6.6564Q11.7588078125,6.73458,11.8517078125,6.82857Q11.9446078125,6.92256,12.0215078125,7.03001Q12.0985078125,7.13747,12.1575078125,7.25571Q12.2165078125,7.37394,12.2562078125,7.5L14.1660078125,7.5C14.4421078125,7.5,14.6660078125,7.72386,14.6660078125,8C14.6660078125,8.27614,14.4421078125,8.5,14.1660078125,8.5L12.2563078125,8.5Q12.2166078125,8.62609,12.1576078125,8.74435Q12.0986078125,8.86262,12.0217078125,8.9701Q11.9448078125,9.07759,11.8519078125,9.171610000000001Q11.7590078125,9.26562,11.6524078125,9.343820000000001Q11.5459078125,9.42202,11.4283078125,9.48245Q11.3107678125,9.54288,11.1851578125,9.584019999999999Q11.0595578125,9.625160000000001,10.9290378125,9.646Q10.7985178125,9.666830000000001,10.6663378125,9.666830000000001Q10.5341678125,9.666830000000001,10.4036478125,9.646Q10.2731278125,9.625160000000001,10.1475278125,9.584019999999999Q10.0219178125,9.54288,9.9043678125,9.48245Q9.7868178125,9.42202,9.6802578125,9.343820000000001Q9.5736978125,9.26562,9.4808078125,9.171610000000001Q9.3879078125,9.07759,9.310987812499999,8.9701Q9.234067812500001,8.86262,9.1750478125,8.74435Q9.1160278125,8.62609,9.0763878125,8.5L1.8326838125,8.5C1.5565408125,8.5,1.3326835635,8.27614,1.3326835635,8C1.3326835635,7.72386,1.5565408125,7.5,1.8326838125,7.5ZM10.6656878125,8.83366Q10.5836178125,8.83366,10.5031178125,8.81765Q10.4226178125,8.80163,10.3467878125,8.77022Q10.2709578125,8.73881,10.2027178125,8.69322Q10.1344678125,8.64762,10.0764378125,8.58958Q10.0183978125,8.53154,9.9727978125,8.4633Q9.9271978125,8.39506,9.8957878125,8.319230000000001Q9.8643778125,8.243400000000001,9.8483678125,8.1629Q9.8323578125,8.0824,9.8323578125,8.00033Q9.8323578125,7.91825,9.8483678125,7.83775Q9.8643778125,7.75725,9.8957878125,7.68142Q9.9271978125,7.60559,9.9727978125,7.53735Q10.0183978125,7.46911,10.0764378125,7.41107Q10.1344678125,7.35303,10.2027178125,7.30743Q10.2709578125,7.26183,10.3467878125,7.23043Q10.4226178125,7.19902,10.5031178125,7.183Q10.5836178125,7.16699,10.6656878125,7.16699Q10.7477678125,7.16699,10.8282678125,7.183Q10.9087678125,7.19902,10.9845878125,7.23043Q11.0604178125,7.26183,11.1286678125,7.30743Q11.1969078125,7.35303,11.2549478125,7.41107Q11.3129778125,7.46911,11.3586078125,7.53735Q11.4042078125,7.60559,11.4356078125,7.68142Q11.4670078125,7.75725,11.4830078125,7.83775Q11.4990078125,7.91825,11.4990078125,8.00033Q11.4990078125,8.0824,11.4830078125,8.1629Q11.4670078125,8.243400000000001,11.4356078125,8.319230000000001Q11.4042078125,8.39506,11.3586078125,8.4633Q11.3129778125,8.53154,11.2549478125,8.58958Q11.1969078125,8.64762,11.1286678125,8.69322Q11.0604178125,8.73881,10.9845878125,8.77022Q10.9087678125,8.80163,10.8282678125,8.81765Q10.7477678125,8.83366,10.6656878125,8.83366ZM14.1663078125,11.83301L6.9225278125,11.83301Q6.8828678125,11.70695,6.8238478125,11.58871Q6.7648178125,11.47048,6.6878878125,11.36302Q6.6109678125,11.25557,6.5180678125,11.16158Q6.4251778125,11.06759,6.3186278125,10.98941Q6.2120778125,10.91123,6.0945478125,10.85083Q5.9770078125,10.79042,5.8514178125,10.74929Q5.7258378125,10.70816,5.5953378125,10.68733Q5.4648378125,10.6665,5.3326778125,10.6665Q5.2005278125,10.6665,5.070027812499999,10.68733Q4.9395278125,10.70816,4.8139478125,10.74929Q4.6883578125,10.79042,4.5708178125,10.85083Q4.4532878125,10.91123,4.3467378125,10.98941Q4.2401878125,11.06759,4.1472978125,11.16158Q4.0543978124999995,11.25557,3.9774778125,11.36302Q3.9005478125,11.47048,3.8415178125,11.58871Q3.7824978125,11.70695,3.7428378125,11.83301L1.8330078125,11.83301C1.5568658125,11.83301,1.3330078125,12.0569,1.3330078125,12.333C1.3330078125,12.6091,1.5568658125,12.833,1.8330078125,12.833L3.7427278125,12.833Q3.7823678125,12.9591,3.8413878125,13.0774Q3.9004078125,13.1956,3.9773278125,13.3031Q4.0542478125,13.4106,4.1471478125,13.5046Q4.2400478125,13.5986,4.346597812500001,13.6768Q4.453157812500001,13.755,4.5707078125,13.8155Q4.6882578125,13.8759,4.8138678125,13.917Q4.9394678125,13.9582,5.0699878125,13.979Q5.2005078125,13.9998,5.3326778125,13.9998Q5.4648578125,13.9998,5.5953778125,13.979Q5.7258978125,13.9582,5.8514978125,13.917Q5.9771078125,13.8759,6.0946578125,13.8155Q6.2122078125,13.755,6.3187678125,13.6768Q6.4253178125,13.5986,6.5182178125,13.5046Q6.6111178125,13.4106,6.6880378125,13.3031Q6.7649578125,13.1956,6.8239778125,13.0774Q6.8829978125,12.9591,6.9226278125,12.833L14.1663078125,12.833C14.4425078125,12.833,14.6663078125,12.6091,14.6663078125,12.333C14.6663078125,12.0569,14.4425078125,11.83301,14.1663078125,11.83301ZM5.3333378125,13.1667Q5.4154078125,13.1667,5.4959078125,13.1507Q5.5764078125,13.1346,5.6522378125,13.1032Q5.7280678125,13.0718,5.7963078125,13.0262Q5.8645478125,12.9806,5.9225878125,12.9226Q5.9806278125,12.8646,6.0262278125,12.7963Q6.0718278125,12.7281,6.1032278125,12.6522Q6.1346378125,12.5764,6.1506578125,12.4959Q6.1666678125,12.4154,6.1666678125,12.3333Q6.1666678125,12.2513,6.1506578125,12.1708Q6.1346378125,12.0903,6.1032278125,12.0144Q6.0718278125,11.9386,6.0262278125,11.87036Q5.9806278125,11.80211,5.9225878125,11.74408Q5.8645478125,11.68604,5.7963078125,11.64044Q5.7280678125,11.59484,5.6522378125,11.56343Q5.5764078125,11.53202,5.4959078125,11.51601Q5.4154078125,11.5,5.3333378125,11.5Q5.2512578125000005,11.5,5.1707578125,11.51601Q5.0902578125,11.53202,5.0144278125,11.56343Q4.938597812499999,11.59484,4.8703578125,11.64044Q4.802117812500001,11.68604,4.7440778125000005,11.74408Q4.6860378125,11.80211,4.6404378125,11.87036Q4.5948378125,11.9386,4.5634378125,12.0144Q4.5320278125,12.0903,4.5160078125,12.1708Q4.4999978125,12.2513,4.4999978125,12.3333Q4.4999978125,12.4154,4.5160078125,12.4959Q4.5320278125,12.5764,4.5634378125,12.6522Q4.5948378125,12.7281,4.6404378125,12.7963Q4.6860378125,12.8646,4.7440778125000005,12.9226Q4.802117812500001,12.9806,4.8703578125,13.0262Q4.938597812499999,13.0718,5.0144278125,13.1032Q5.0902578125,13.1346,5.1707578125,13.1507Q5.2512578125000005,13.1667,5.3333378125,13.1667Z" fill-rule="evenodd" fill="#FFFFFF" fill-opacity="1"/></g></g></svg>