<svg xmlns="http://www.w3.org/2000/svg" xmlns:xlink="http://www.w3.org/1999/xlink" fill="none" version="1.1" width="12" height="12" viewBox="0 0 12 12"><g><g style="opacity:0;"><rect x="0" y="0" width="12" height="12" rx="0" fill="#FF5F57" fill-opacity="1"/></g><g><path d="M11,6C11,7.25,8.886420000000001,9.75,6.125,9.75C3.36358,9.75,1,7.25,1,6C1,4.75,3.23858,2.25,6,2.25C8.761420000000001,2.25,11,4.75,11,6ZM7.875,6Q7.875,6.09211,7.86597,6.1837800000000005Q7.85694,6.27545,7.83897,6.36579Q7.821,6.45614,7.79426,6.54428Q7.76752,6.63243,7.73227,6.71753Q7.69702,6.80263,7.6536,6.88387Q7.61018,6.9651,7.559,7.04169Q7.50783,7.11828,7.44939,7.18949Q7.39096,7.26069,7.32582,7.32583Q7.26069,7.39096,7.18949,7.44939Q7.11828,7.50783,7.04169,7.55901Q6.96511,7.61018,6.88387,7.6536Q6.80263,7.69702,6.71753,7.73227Q6.63243,7.76752,6.54428,7.79426Q6.45614,7.821,6.36579,7.83897Q6.27545,7.85694,6.18378,7.86597Q6.09211,7.875,6,7.875Q5.90789,7.875,5.81622,7.86597Q5.72455,7.85694,5.63421,7.83897Q5.54386,7.821,5.45572,7.79426Q5.36757,7.76752,5.28247,7.73227Q5.19737,7.69702,5.11613,7.6536Q5.03489,7.61018,4.95831,7.55901Q4.88172,7.50783,4.81051,7.44939Q4.73931,7.39096,4.67417,7.32583Q4.60904,7.26069,4.55061,7.18949Q4.49217,7.11828,4.44099,7.04169Q4.38982,6.96511,4.3464,6.88387Q4.30298,6.80263,4.26773,6.71753Q4.23248,6.63243,4.2057400000000005,6.54428Q4.179,6.45614,4.16103,6.36579Q4.14306,6.27545,4.13403,6.1837800000000005Q4.125,6.09211,4.125,6Q4.125,5.90789,4.13403,5.8162199999999995Q4.14306,5.72455,4.16103,5.6342099999999995Q4.179,5.5438600000000005,4.2057400000000005,5.4557199999999995Q4.23248,5.367570000000001,4.26773,5.28247Q4.30298,5.197369999999999,4.3464,5.11613Q4.38982,5.03489,4.44099,4.95831Q4.49217,4.88172,4.55061,4.81051Q4.60904,4.73931,4.67417,4.67417Q4.73931,4.60904,4.81051,4.55061Q4.88172,4.49217,4.95831,4.44099Q5.03489,4.38982,5.11613,4.3464Q5.19737,4.30298,5.28247,4.26773Q5.36757,4.23248,5.45572,4.2057400000000005Q5.54386,4.179,5.6342,4.16103Q5.72455,4.14306,5.81622,4.13403Q5.90789,4.125,6,4.125Q6.09211,4.125,6.18378,4.13403Q6.27545,4.14306,6.36579,4.16103Q6.45614,4.179,6.54428,4.2057400000000005Q6.63243,4.23248,6.71753,4.26773Q6.80263,4.30298,6.88387,4.3464Q6.96511,4.38982,7.04169,4.44099Q7.11828,4.49217,7.18949,4.55061Q7.26069,4.60904,7.32582,4.67417Q7.39096,4.73931,7.44939,4.81051Q7.50783,4.88172,7.559,4.95831Q7.61018,5.03489,7.6536,5.11613Q7.69702,5.197369999999999,7.73227,5.28247Q7.76752,5.367570000000001,7.79426,5.4557199999999995Q7.821,5.5438600000000005,7.83897,5.6342099999999995Q7.85694,5.72455,7.86597,5.8162199999999995Q7.875,5.90789,7.875,6ZM7.125,6Q7.125,6.05527,7.11958,6.11027Q7.11417,6.16527,7.10338,6.21948Q7.0926,6.27368,7.07656,6.32657Q7.06051,6.37946,7.03936,6.43052Q7.01821,6.48158,6.99216,6.53032Q6.96611,6.57906,6.9354,6.62502Q6.9047,6.67097,6.86964,6.71369Q6.83458,6.75641,6.79549,6.7955Q6.75641,6.83458,6.71369,6.86964Q6.67097,6.9047,6.62502,6.9354Q6.57906,6.96611,6.53032,6.99216Q6.48158,7.01821,6.43052,7.03936Q6.37946,7.06051,6.32657,7.07656Q6.27368,7.0926,6.21948,7.10338Q6.16527,7.11417,6.11027,7.11958Q6.05527,7.125,6,7.125Q5.94473,7.125,5.88973,7.11958Q5.83473,7.11417,5.78052,7.10338Q5.72632,7.0926,5.67343,7.07656Q5.62054,7.06051,5.56948,7.03936Q5.51842,7.01821,5.46968,6.99216Q5.42094,6.96611,5.37498,6.9354Q5.32903,6.9047,5.28631,6.86964Q5.24358,6.83458,5.2045,6.7955Q5.16542,6.75641,5.13036,6.71369Q5.0953,6.67097,5.0646,6.62502Q5.03389,6.57906,5.00784,6.53032Q4.98179,6.48158,4.96063,6.43052Q4.93949,6.37946,4.923439999999999,6.32657Q4.9074,6.27368,4.89662,6.21948Q4.88583,6.16527,4.88042,6.11027Q4.875,6.05527,4.875,6Q4.875,5.94473,4.88042,5.88973Q4.88583,5.83473,4.89662,5.78052Q4.9074,5.726319999999999,4.923439999999999,5.67343Q4.93949,5.62054,4.96063,5.56948Q4.98179,5.51842,5.00784,5.46968Q5.03389,5.42094,5.0646,5.37498Q5.0953,5.3290299999999995,5.13036,5.28631Q5.16542,5.24358,5.2045,5.2044999999999995Q5.24358,5.16542,5.28631,5.13036Q5.32903,5.0953,5.37498,5.0646Q5.42094,5.0338899999999995,5.46968,5.00784Q5.51842,4.98179,5.56948,4.96064Q5.62054,4.93949,5.67343,4.923439999999999Q5.72632,4.9074,5.78052,4.89662Q5.83473,4.88583,5.88973,4.88042Q5.94473,4.875,6,4.875Q6.05527,4.875,6.11027,4.88042Q6.16527,4.88583,6.21948,4.89662Q6.27368,4.9074,6.32657,4.923439999999999Q6.37946,4.93949,6.43052,4.96064Q6.48158,4.98179,6.53032,5.00784Q6.57906,5.0338899999999995,6.62502,5.0646Q6.67097,5.0953,6.71369,5.13036Q6.75641,5.16542,6.79549,5.2044999999999995Q6.83458,5.24358,6.86964,5.28631Q6.9047,5.3290299999999995,6.9354,5.37498Q6.96611,5.42094,6.99216,5.46968Q7.01821,5.51842,7.03936,5.56948Q7.06051,5.62054,7.07656,5.67343Q7.0926,5.726319999999999,7.10338,5.78052Q7.11417,5.83473,7.11958,5.88973Q7.125,5.94473,7.125,6Z" fill-rule="evenodd" fill="#FFFFFF" fill-opacity="0.800000011920929"/></g></g></svg>