<svg xmlns="http://www.w3.org/2000/svg" xmlns:xlink="http://www.w3.org/1999/xlink" fill="none" version="1.1" width="12" height="12" viewBox="0 0 12 12"><g><g></g><g><path d="M7.28673,2.75C7.28673,1.921573,6.61515,1.25,5.78673,1.25L5.75,1.25L3.75685,4.79338C3.58846,5.09274,3.5,5.43043,3.5,5.7739L3.5,9.25C3.5,10.07843,4.17157,10.75,5,10.75L8.13844,10.75C8.671949999999999,10.75,9.1653,10.46663,9.43411,10.00581L10.20512,8.684090000000001C10.56197,8.07234,10.75,7.37682,10.75,6.6686L10.75,6C10.75,5.44771,10.30229,5,9.75,5L7.28555,5C7.2745,5,7.26346,4.99927,7.2525,4.997809999999999C7.11564,4.97956,7.01949,4.85382,7.03774,4.71696L7.27357,2.94825C7.28233,2.88253,7.28673,2.8163,7.28673,2.75ZM1.25,6L1.25,10Q1.25,10.07387,1.264411,10.14632Q1.2788221,10.21877,1.3070903,10.28701Q1.3353586,10.35526,1.376398,10.41668Q1.417437,10.4781,1.46967,10.53033Q1.521903,10.58256,1.583322,10.6236Q1.644742,10.66464,1.712987,10.69291Q1.7812329999999998,10.72118,1.853682,10.73559Q1.926131,10.75,2,10.75Q2.073869,10.75,2.146318,10.73559Q2.218767,10.72118,2.28701,10.69291Q2.35526,10.66464,2.41668,10.6236Q2.4781,10.58256,2.53033,10.53033Q2.58256,10.4781,2.6235999999999997,10.41668Q2.66464,10.35526,2.69291,10.28701Q2.72118,10.21877,2.73559,10.14632Q2.75,10.07387,2.75,10L2.75,6Q2.75,5.92613,2.73559,5.85368Q2.72118,5.78123,2.69291,5.71299Q2.66464,5.64474,2.6235999999999997,5.58332Q2.58256,5.5219,2.53033,5.46967Q2.4781,5.41744,2.41668,5.3764Q2.35526,5.33536,2.28701,5.30709Q2.218767,5.27882,2.146318,5.26441Q2.073869,5.25,2,5.25Q1.926131,5.25,1.853682,5.26441Q1.7812329999999998,5.27882,1.712987,5.30709Q1.644742,5.33536,1.583322,5.3764Q1.521903,5.41744,1.46967,5.46967Q1.417437,5.5219,1.376398,5.58332Q1.3353586,5.64474,1.3070903,5.71299Q1.2788221,5.78123,1.264411,5.85368Q1.25,5.92613,1.25,6Z" fill-rule="evenodd" fill="#FFFFFF" fill-opacity="0.800000011920929"/></g></g></svg>